<?xml version="1.0" standalone="no"?>
<!DOCTYPE svg PUBLIC "-//W3C//DTD SVG 20010904//EN"
 "http://www.w3.org/TR/2001/REC-SVG-20010904/DTD/svg10.dtd">
<svg version="1.0" xmlns="http://www.w3.org/2000/svg"
 width="119.000000pt" height="119.000000pt" viewBox="0 0 119.000000 119.000000"
 preserveAspectRatio="xMidYMid meet">
<metadata>
Created by potrace 1.14, written by Peter Selinger 2001-2017
</metadata>
<g transform="translate(0.000000,119.000000) scale(0.100000,-0.100000)"
fill="#000000" stroke="none">
<path d="M120 595 c0 -118 1 -125 20 -125 18 0 20 7 21 68 l1 67 21 -62 c18
-53 25 -63 44 -63 23 0 23 1 23 120 0 112 -1 120 -20 120 -17 0 -19 -8 -22
-67 l-3 -68 -23 68 c-18 51 -28 67 -43 67 -18 0 -19 -8 -19 -125z"/>
<path d="M290 605 l0 -115 55 0 c48 0 55 2 55 20 0 16 -7 20 -35 20 -32 0 -35
2 -35 30 0 25 4 30 25 30 18 0 25 5 25 20 0 15 -7 20 -25 20 -20 0 -25 5 -25
25 0 22 4 25 35 25 28 0 35 4 35 20 0 18 -7 20 -55 20 l-55 0 0 -115z"/>
<path d="M430 700 c0 -13 7 -20 20 -20 19 0 20 -7 20 -90 0 -83 1 -90 20 -90
19 0 20 7 20 90 0 83 1 90 20 90 13 0 20 7 20 20 0 18 -7 20 -60 20 -53 0 -60
-2 -60 -20z"/>
<path d="M580 610 c0 -103 1 -110 20 -110 17 0 20 7 20 45 0 41 2 45 25 45 18
0 25 5 25 20 0 15 -7 20 -25 20 -20 0 -25 5 -25 25 0 22 4 25 35 25 28 0 35 4
35 20 0 18 -7 20 -55 20 l-55 0 0 -110z"/>
<path d="M715 610 c0 -91 3 -110 15 -110 8 0 32 -3 53 -6 33 -6 37 -4 37 14 0
16 -7 21 -32 24 l-33 3 -3 93 c-2 79 -5 92 -20 92 -15 0 -17 -13 -17 -110z"/>
<path d="M860 605 c0 -108 1 -115 20 -115 19 0 20 7 20 115 0 108 -1 115 -20
115 -19 0 -20 -7 -20 -115z"/>
<path d="M951 668 c11 -29 22 -55 25 -60 3 -4 -4 -24 -14 -45 -33 -65 -36 -83
-14 -83 11 0 24 13 34 33 l15 32 16 -37 c11 -26 22 -38 36 -38 20 0 20 1 -5
66 -13 36 -22 69 -20 73 3 4 14 30 25 59 l21 52 -21 0 c-14 0 -24 -10 -32 -30
-6 -16 -14 -30 -17 -30 -3 0 -11 14 -17 30 -8 20 -18 30 -32 30 l-21 0 21 -52z"/>
</g>
</svg>
